<svg xmlns="http://www.w3.org/2000/svg" width="300" height="73.749" viewBox="0 0 300 73.749"><path fill="#003f98" d="M207.281 60.68c-12.828 0-17.772-11.808-17.772-23.808s4.944-23.8 17.772-23.8c12.815 0 17.772 11.8 17.772 23.8S220.096 60.68 207.28 60.68m0-59.68c-20.2 0-31.864 15.135-31.864 35.872 0 20.744 11.664 35.876 31.864 35.876 20.19 0 31.85-15.132 31.85-35.876C239.13 16.135 227.47 1 207.28 1M1 3.013h50.616v12.074H15.079v15.017H49.15v11.769H15.08v16.796h36.537v12.069H1V3.013zm83.472 35.339H71.725v-23.28h12.747c8.86 0 14.752 3.855 14.752 11.643 0 7.784-5.893 11.637-14.752 11.637m-26.82 32.384h14.073v-20.32h12.747c17.251 0 28.828-8.474 28.828-23.701 0-15.23-11.577-23.701-28.828-23.701h-26.82v67.722zM258.905 3.013H244.45v67.725h13.803V43.305c0-7.508-.268-14.168-.523-20.058 1.627 3.39 6.57 13.577 8.85 17.404l17.965 30.087H299V3.013h-13.803V29.76c0 7.5.276 14.86.523 20.736-1.627-3.39-6.557-13.572-8.87-17.393l-17.945-30.09zM129.289 48.33c0 9.101 7.572 12.639 15.624 12.639 5.257 0 13.793-1.525 13.793-8.515 0-7.383-10.429-8.778-20.492-11.457-10.552-2.793-20.715-6.751-20.715-19.3C117.5 7.706 130.732 1 143.092 1c14.27 0 27.396 6.228 27.396 22.034h-14.082c-.478-8.237-6.801-10.35-13.987-10.35-4.794 0-10.83 2.014-10.83 7.77 0 5.266 3.445 6.078 20.583 10.49 4.989 1.247 20.618 4.264 20.618 19.778 0 12.557-9.869 21.937-28.465 21.937-15.128 0-29.307-7.467-29.12-24.329h14.084z"/></svg>