<svg xmlns="http://www.w3.org/2000/svg" width="100" height="100"><g fill="#0096D6"><path d="M99.898 50.002c0-27.56-22.34-49.9-49.9-49.9-.751 0-1.499.02-2.242.053L37.549 28.21h8.89c5.288 0 8.138 4.072 6.328 9.045l-12.59 34.6-10.572-.002 13.511-37.085h-7.949l-13.51 37.085H11.082L26.968 28.21h.002l9.556-26.264C15.512 7.823.099 27.112.099 50.002c0 23.57 16.343 43.321 38.315 48.545l9.26-25.448h.008l16.336-44.89h19.47c5.294 0 8.143 4.072 6.332 9.045l-11.062 30.39c-.843 2.315-3.547 4.208-6.01 4.208H58.714L48.516 99.88c.492.013.987.023 1.482.023 27.56 0 49.9-22.342 49.9-49.9"/><path d="M80.192 34.74h-7.945L61.12 65.27h7.945l11.127-30.53"/></g></svg>