<svg xmlns="http://www.w3.org/2000/svg"
  width="100"
  height="100"
  version="1.1"
  xmlSpace="preserve">
  <g transform="matrix(1.25 0 0 -1.25 -67.823 702.431)">
    <g fill="#0096D6"
      fillOpacity="1"
      transform="matrix(1.51804 0 0 1.51804 -28.15 -249.71)">
      <g transform="translate(106.932 508.322)">
        <path fill="#0096D6"
          fillOpacity="1"
          fillRule="nonzero"
          stroke="none"
          d="M0 0c0 14.524-11.773 26.297-26.297 26.297-.396 0-.79-.01-1.182-.028l-5.379-14.784h4.685c2.787 0 4.289-2.146 3.335-4.767l-6.635-18.234-5.571.001 7.12 19.544h-4.189l-7.12-19.544h-5.573l8.372 23h.001l5.036 13.841C-44.471 22.228-52.594 12.063-52.594 0c0-12.421 8.613-22.83 20.192-25.583l4.88 13.411h.004l8.609 23.657h10.261c2.79 0 4.291-2.146 3.337-4.767l-5.83-16.015c-.444-1.22-1.869-2.218-3.167-2.218h-7.396l-5.374-14.77c.259-.007.52-.012.781-.012C-11.773-26.297 0-14.523 0 0"></path>
      </g>
      <g transform="translate(96.547 516.365)">
        <path fill="#0096D6"
          fillOpacity="1"
          fillRule="nonzero"
          stroke="none"
          d="M0 0h-4.187l-5.864-16.089h4.187L0 0"></path>
      </g>
    </g>
  </g>
</svg>