<svg viewBox="51.697 433.367 892.087 367.562" width="892.087" height="367.562" xmlns="http://www.w3.org/2000/svg"><path d="M200.051 500c0 36.836 29.898 66.632 66.633 66.632 36.836 0 66.632-29.898 66.632-66.632 0-36.837-29.898-66.633-66.632-66.633-36.735 0-66.633 29.898-66.633 66.633Zm233.367 0c0 36.836 29.898 66.632 66.633 66.632 36.837 0 66.633-29.898 66.633-66.632 0-36.837-29.898-66.633-66.633-66.633-36.837 0-66.633 29.898-66.633 66.633Zm233.266 0c0 36.836 29.898 66.632 66.632 66.632 36.837 0 66.633-29.898 66.633-66.632 0-36.837-29.898-66.633-66.633-66.633-36.734 0-66.632 29.898-66.632 66.633Z" style="fill:#777"/><text style="fill:#777;font-family:Arial,sans-serif;font-size:150px;text-anchor:middle;text-transform:capitalize;white-space:pre" x="565.391" y="856.992" dx="-67.65" dy="-87.635">Other Brands</text></svg>